<svg xmlns="http://www.w3.org/2000/svg" viewBox="0 0 91 102">
  <g transform="translate(0,-195)">
    <path
       style="fill:#ffffff;fill-opacity:1;stroke:none;stroke-width:0.26745218;stroke-linejoin:round;stroke-miterlimit:4;stroke-dasharray:none;stroke-dashoffset:0;stroke-opacity:1"
       d="m 31.3 194.91 l -0.93 0.87 c -0.51 0.48 -1.46 1.89 -2.12 3.13 l -1.19 2.27 l -12.51 0.07 C 0.57 201.33 1.57 201.18 0.54 203.3 C 0.08 204.25 0 204.95 0 208.03 c 0 3.26 0.06 3.72 0.62 4.79 c 0.34 0.65 0.91 1.32 1.27 1.5 v 0 c 0.96 0.49 86.14 0.48 87.1 -0.01 c 0.37 -0.19 0.97 -0.87 1.34 -1.53 c 0.62 -1.11 0.67 -1.44 0.67 -4.93 c 0 -3.96 -0.08 -4.26 -1.57 -5.94 l -0.53 -0.6 H 76.38 H 63.86 l -0.24 -0.64 c -0.13 -0.35 -0.36 -0.71 -0.5 -0.8 c -0.14 -0.09 -0.33 -0.45 -0.42 -0.82 c -0.22 -0.87 -1.33 -2.49 -2.33 -3.41 l -0.8 -0.73 H 45.43 Z m -24.48 25.71 l 3.48 61.76 c 0.25 7.76 0.53 8.81 3.12 11.57 c 0.81 0.69 3.1 2.78 4.14 2.95 l 56.56 -0.03 c 2.46 -0.49 4.59 -3.28 5.38 -5.65 c 0.1 -0.37 0.36 -1.05 0.57 -1.52 c 0.28 -0.61 0.46 -2.69 0.63 -7.34 l 3.5 -61.69 z"/>
  </g>
</svg>